<?xml version="1.0" standalone="no"?>
<svg class="blob" viewBox="0 0 200 200" xmlns="http://www.w3.org/2000/svg">
  <path fill="#FF0066" d="M37.4,-55.5C49.6,-50.3,61.4,-41.9,68.2,-30.2C75,-18.6,76.7,-3.6,76.3,12.1C75.8,27.9,73.2,44.6,63.9,55.4C54.6,66.3,38.5,71.4,22.5,75.6C6.5,79.9,-9.5,83.4,-22,78.2C-34.4,73,-43.3,59.1,-53.1,46.7C-63,34.2,-73.6,23.2,-75.3,10.9C-76.9,-1.4,-69.5,-14.9,-63,-28.7C-56.6,-42.5,-51.1,-56.7,-40.7,-62.8C-30.4,-68.8,-15.2,-66.7,-1.3,-64.7C12.6,-62.7,25.1,-60.7,37.4,-55.5Z" transform="translate(100 100)" />
</svg>
